<mxfile host="app.diagrams.net" modified="2023-05-11T06:17:41.797Z" agent="Mozilla/5.0 (Windows NT 10.0; Win64; x64) AppleWebKit/537.36 (KHTML, like Gecko) Chrome/112.0.0.0 Safari/537.36" etag="xPmj7C3ZIEVA_LLgtxCh" version="21.2.1" type="github">
  <diagram name="第 1 页" id="b47gTUE05EaZZLRESBLt">
    <mxGraphModel dx="1434" dy="796" grid="0" gridSize="10" guides="1" tooltips="1" connect="1" arrows="1" fold="1" page="0" pageScale="1" pageWidth="827" pageHeight="1169" math="0" shadow="0">
      <root>
        <mxCell id="0" />
        <mxCell id="1" parent="0" />
        <mxCell id="rSUia1p7aav2E_l1mwb6-29" value="" style="rounded=0;whiteSpace=wrap;html=1;" vertex="1" parent="1">
          <mxGeometry x="752" y="386" width="120" height="60" as="geometry" />
        </mxCell>
        <mxCell id="rSUia1p7aav2E_l1mwb6-16" value="&lt;span style=&quot;white-space: pre;&quot;&gt;	&lt;/span&gt;&lt;span style=&quot;white-space: pre;&quot;&gt;	&lt;/span&gt;2" style="rounded=0;whiteSpace=wrap;html=1;" vertex="1" parent="1">
          <mxGeometry x="196" y="288" width="123" height="60" as="geometry" />
        </mxCell>
        <mxCell id="rSUia1p7aav2E_l1mwb6-17" value="1" style="whiteSpace=wrap;html=1;" vertex="1" parent="1">
          <mxGeometry x="192" y="288" width="64" height="60" as="geometry" />
        </mxCell>
        <mxCell id="rSUia1p7aav2E_l1mwb6-18" value="2" style="rounded=0;whiteSpace=wrap;html=1;" vertex="1" parent="1">
          <mxGeometry x="395" y="288" width="208" height="60" as="geometry" />
        </mxCell>
        <mxCell id="rSUia1p7aav2E_l1mwb6-19" value="1" style="rounded=0;whiteSpace=wrap;html=1;" vertex="1" parent="1">
          <mxGeometry x="393" y="290" width="61" height="56" as="geometry" />
        </mxCell>
        <mxCell id="rSUia1p7aav2E_l1mwb6-20" value="3" style="rounded=0;whiteSpace=wrap;html=1;" vertex="1" parent="1">
          <mxGeometry x="540" y="290" width="61" height="56" as="geometry" />
        </mxCell>
        <mxCell id="rSUia1p7aav2E_l1mwb6-33" style="edgeStyle=none;rounded=0;orthogonalLoop=1;jettySize=auto;html=1;exitX=0.5;exitY=1;exitDx=0;exitDy=0;entryX=0;entryY=0;entryDx=0;entryDy=0;" edge="1" parent="1" source="rSUia1p7aav2E_l1mwb6-24" target="rSUia1p7aav2E_l1mwb6-26">
          <mxGeometry relative="1" as="geometry" />
        </mxCell>
        <mxCell id="rSUia1p7aav2E_l1mwb6-34" style="edgeStyle=none;rounded=0;orthogonalLoop=1;jettySize=auto;html=1;exitX=0.5;exitY=1;exitDx=0;exitDy=0;" edge="1" parent="1" source="rSUia1p7aav2E_l1mwb6-24" target="rSUia1p7aav2E_l1mwb6-32">
          <mxGeometry relative="1" as="geometry" />
        </mxCell>
        <mxCell id="rSUia1p7aav2E_l1mwb6-24" value="3" style="rounded=0;whiteSpace=wrap;html=1;" vertex="1" parent="1">
          <mxGeometry x="844" y="257" width="120" height="60" as="geometry" />
        </mxCell>
        <mxCell id="rSUia1p7aav2E_l1mwb6-25" value="1" style="rounded=0;whiteSpace=wrap;html=1;" vertex="1" parent="1">
          <mxGeometry x="752" y="388" width="61" height="56" as="geometry" />
        </mxCell>
        <mxCell id="rSUia1p7aav2E_l1mwb6-26" value="2" style="rounded=0;whiteSpace=wrap;html=1;" vertex="1" parent="1">
          <mxGeometry x="815" y="388" width="61" height="56" as="geometry" />
        </mxCell>
        <mxCell id="rSUia1p7aav2E_l1mwb6-30" value="" style="rounded=0;whiteSpace=wrap;html=1;" vertex="1" parent="1">
          <mxGeometry x="908" y="388" width="120" height="60" as="geometry" />
        </mxCell>
        <mxCell id="rSUia1p7aav2E_l1mwb6-31" value="3" style="rounded=0;whiteSpace=wrap;html=1;" vertex="1" parent="1">
          <mxGeometry x="908" y="390" width="61" height="56" as="geometry" />
        </mxCell>
        <mxCell id="rSUia1p7aav2E_l1mwb6-32" value="4" style="rounded=0;whiteSpace=wrap;html=1;" vertex="1" parent="1">
          <mxGeometry x="971" y="390" width="61" height="56" as="geometry" />
        </mxCell>
      </root>
    </mxGraphModel>
  </diagram>
</mxfile>
